<svg width="24" height="24" viewBox="0 0 24 24" fill="none" xmlns="http://www.w3.org/2000/svg">
<path fill-rule="evenodd" clip-rule="evenodd" d="M13.541 14.6C13.241 14.8 12.841 14.8 12.541 14.6V18.3C12.641 19 12.741 19.7 13.041 20.3L12.141 20.8C11.941 20.9 11.741 21 11.541 21C11.341 21 11.141 20.9 10.941 20.8L3.04096 16.4C2.74095 16.2 2.54096 15.9 2.54096 15.5V10C2.24095 10.2 1.84096 10.2 1.54096 10C1.04096 9.70001 0.840952 9.09998 1.14095 8.59998L2.64095 6C2.74095 5.79999 2.94096 5.69995 3.14095 5.59998L10.941 1.19995C11.141 1.09998 11.341 1 11.541 1C11.741 1 11.941 1.09998 12.141 1.19995L20.041 5.59998C20.241 5.69995 20.341 5.89996 20.441 6.09998L21.941 8.59998C22.141 9.09998 22.041 9.70001 21.541 10L20.541 10.6V12.4C19.941 12.1 19.241 12 18.541 12V11.7L13.541 14.6ZM4.54096 14.9L10.541 18.3V11.6L4.54096 8.19995V14.9ZM13.341 12.3L19.641 8.69995L19.041 7.69995L12.741 11.3L13.341 12.3ZM11.541 3.19995V9.79999L17.541 6.5L11.541 3.19995Z" fill="white"/>
<path d="M19.541 14V17H22.541V19H19.541V22H17.541V19H14.541V17H17.541V14H19.541Z" fill="#FFC524"/>
</svg>
