<svg width="24" height="24" viewBox="0 0 24 24" fill="none" xmlns="http://www.w3.org/2000/svg">
<path fill-rule="evenodd" clip-rule="evenodd" d="M8.88159 13.1414C8.95917 13.343 9.04251 13.5464 9.13193 13.7489C9.29153 14.1103 9.4704 14.469 9.67001 14.81C9.58606 14.9884 9.49588 15.1623 9.40079 15.3316C9.29037 15.528 9.17334 15.7182 9.05164 15.9016C8.66547 16.4835 8.23248 16.9977 7.81674 17.4316C7.29877 17.9722 6.80746 18.3883 6.46671 18.6556C6.18011 18.8804 6 19 6 19C4.94791 17.9479 4.24173 16.4116 3.80865 15.1916C3.63965 14.7154 3.51224 14.2875 3.42209 13.9553C3.30414 13.5206 3.25 13.25 3.25 13.25L3.29285 13.2446C3.76465 13.1835 4.21545 13.0906 4.6467 12.9705C5.30035 12.7885 5.90958 12.5439 6.48077 12.2523C6.71594 12.1322 6.9447 12.0042 7.16742 11.8693C7.54477 11.6408 7.90488 11.3926 8.25 11.13C8.2905 11.2904 8.33624 11.4631 8.38754 11.6451C8.51593 12.1008 8.67905 12.6151 8.88159 13.1414ZM7.13428 14.1605C6.69922 14.37 6.24319 14.558 5.76471 14.7188C5.93466 15.1763 6.1326 15.6356 6.35602 16.0652C6.72052 15.6865 7.08569 15.2507 7.40018 14.7731C7.30569 14.5684 7.21713 14.3635 7.13428 14.1605Z" fill="white"/>
<path fill-rule="evenodd" clip-rule="evenodd" d="M20.7072 13.2446L20.75 13.25C20.75 13.25 20.6959 13.5206 20.5779 13.9553C20.4878 14.2875 20.3604 14.7154 20.1913 15.1916C19.7583 16.4116 19.0521 17.9479 18 19C18 19 17.8199 18.8804 17.5333 18.6556C17.1925 18.3883 16.7012 17.9722 16.1833 17.4316C15.7675 16.9977 15.3345 16.4835 14.9484 15.9016C14.8267 15.7182 14.7096 15.528 14.5992 15.3316C14.5041 15.1623 14.4139 14.9884 14.33 14.81C14.5296 14.469 14.7085 14.1103 14.8681 13.7489C14.9575 13.5464 15.0408 13.343 15.1184 13.1414C15.321 12.6151 15.4841 12.1008 15.6125 11.6451C15.6638 11.4631 15.7095 11.2904 15.75 11.13C16.0951 11.3926 16.4553 11.6408 16.8326 11.8693C17.0553 12.0042 17.2841 12.1322 17.5192 12.2523C18.0904 12.5439 18.6996 12.7885 19.3533 12.9705C19.7845 13.0906 20.2354 13.1835 20.7072 13.2446ZM18.2353 14.7188C17.7568 14.558 17.3008 14.37 16.8657 14.1605C16.7829 14.3635 16.6943 14.5684 16.5998 14.7731C16.9143 15.2507 17.2795 15.6865 17.644 16.0652C17.8674 15.6356 18.0653 15.1763 18.2353 14.7188Z" fill="white"/>
<path fill-rule="evenodd" clip-rule="evenodd" d="M14.9919 19.0727C13.8374 20.6475 12 21.75 12 21.75C12 21.75 10.1626 20.6475 9.00809 19.0727C8.81595 18.8106 8.6427 18.5354 8.5 18.25C8.5 18.25 8.80948 17.9916 9.21365 17.5172C9.39688 17.3021 9.59955 17.0426 9.80167 16.7427C9.99036 16.4626 10.1786 16.1473 10.35 15.8C10.5668 16.0537 10.7985 16.284 11.048 16.4791C11.188 16.5885 11.3335 16.6869 11.4852 16.7721C11.6444 16.8615 11.8105 16.9365 11.9838 16.9946L12 17L12.0162 16.9946C12.1895 16.9365 12.3555 16.8616 12.5148 16.7721C12.6664 16.6869 12.812 16.5885 12.952 16.4791C13.2015 16.284 13.4332 16.0537 13.65 15.8C13.8214 16.1473 14.0096 16.4626 14.1983 16.7427C14.4004 17.0426 14.6031 17.3021 14.7863 17.5172C15.1905 17.9916 15.5 18.25 15.5 18.25C15.3573 18.5354 15.1841 18.8106 14.9919 19.0727ZM12.4932 15.6038C12.6221 15.4884 12.7695 15.3478 12.9268 15.182C13.138 14.9596 13.3671 14.6919 13.5936 14.3789C13.8966 13.9604 14.195 13.4609 14.4396 12.8807C14.658 12.3628 14.8336 11.7805 14.9315 11.1341C14.9417 11.0669 14.951 10.999 14.9595 10.9304C14.9768 10.7898 14.9904 10.6464 15 10.5C14.6664 10.1931 14.3606 9.87727 14.0827 9.56406C13.7482 9.18718 13.454 8.81407 13.2001 8.4648C12.8264 7.95065 12.54 7.48813 12.3408 7.14119C12.1136 6.74538 12 6.5 12 6.5C12 6.5 11.8864 6.74538 11.6592 7.14119C11.46 7.48813 11.1736 7.95065 10.7999 8.4648C10.546 8.81407 10.2518 9.18718 9.91733 9.56406C9.63937 9.87727 9.33359 10.1931 9 10.5C9.00961 10.6464 9.02322 10.7898 9.04056 10.9304C9.04901 10.999 9.05835 11.0669 9.06851 11.1341C9.16638 11.7805 9.34198 12.3628 9.56039 12.8807C9.80505 13.4609 10.1034 13.9604 10.4064 14.3789C10.6329 14.6919 10.862 14.9596 11.0732 15.182C11.2305 15.3478 11.3779 15.4884 11.5068 15.6038C11.5236 15.6189 11.5401 15.6335 11.5563 15.6477C11.8237 15.8824 12 16 12 16C12 16 12.1763 15.8824 12.4437 15.6477C12.4599 15.6335 12.4764 15.6189 12.4932 15.6038ZM12.8821 11.2151C12.7013 12.0135 12.3606 12.6633 12 13.1694C11.6394 12.6633 11.2986 12.0135 11.1179 11.2152C11.4425 10.8694 11.7365 10.5243 12 10.1913C12.2635 10.5243 12.5575 10.8694 12.8821 11.2151Z" fill="white"/>
<path fill-rule="evenodd" clip-rule="evenodd" d="M13.0507 5.30637C12.9048 4.89836 12.7841 4.46732 12.6932 4.01212C12.6221 3.65616 12.5693 3.28542 12.537 2.89937C12.5127 2.60835 12.5 2.30864 12.5 2C12.5 2 12.8886 2 13.4996 2.09776C13.7905 2.14429 14.1317 2.21298 14.5055 2.31435C16.7365 2.91954 20.1249 4.68983 20.8573 9.86841C20.9195 10.3084 20.9626 10.7731 20.9841 11.2637L20.9876 11.349C20.9958 11.5611 21 11.7781 21 12C21 12 20.9684 11.9926 20.9091 11.9768C20.6603 11.9107 19.9233 11.6978 18.9824 11.2712C18.3874 11.0014 17.7108 10.6461 17.0247 10.1885C16.903 10.1073 16.781 10.0229 16.6591 9.93521C16.4361 9.77477 16.2134 9.60323 15.9936 9.42003C15.4695 8.98329 14.9612 8.48024 14.5021 7.90303C14.0351 7.31593 13.619 6.65201 13.2887 5.90324C13.2035 5.70999 13.1239 5.51109 13.0507 5.30637ZM14.9106 4.56221C15.5054 6.28429 16.671 7.49614 17.9034 8.36606C18.1355 8.52992 18.3685 8.68019 18.5983 8.8176C17.9917 6.70239 16.7996 5.59953 15.736 4.97388C15.4601 4.81161 15.1823 4.6758 14.9106 4.56221Z" fill="#FFC524"/>
<path fill-rule="evenodd" clip-rule="evenodd" d="M7.34091 9.93521C7.21899 10.0229 7.09698 10.1073 6.97528 10.1885C6.28915 10.6461 5.61264 11.0014 5.01761 11.2712C4.07672 11.6978 3.33966 11.9107 3.09085 11.9768C3.03159 11.9926 3 12 3 12C3 11.7781 3.00418 11.5611 3.01236 11.349L3.0159 11.2637C3.03741 10.7731 3.08047 10.3084 3.1427 9.86841C3.87506 4.68983 7.26346 2.91954 9.49454 2.31435C9.86826 2.21298 10.2095 2.14429 10.5004 2.09776C11.1114 2 11.5 2 11.5 2C11.5 2.30864 11.4873 2.60835 11.463 2.89937C11.4307 3.28542 11.3779 3.65616 11.3068 4.01212C11.2159 4.46732 11.0952 4.89836 10.9493 5.30637C10.8761 5.51109 10.7965 5.71011 10.7113 5.90337C10.381 6.65213 9.96484 7.31593 9.49789 7.90303C9.03879 8.48024 8.53052 8.98329 8.00641 9.42003C7.78656 9.60323 7.5639 9.77477 7.34091 9.93521ZM5.40167 8.8176C5.6315 8.68019 5.86447 8.52992 6.09662 8.36606C7.32901 7.49614 8.49463 6.28429 9.08939 4.56221C8.81769 4.6758 8.53989 4.81161 8.26404 4.97388C7.20041 5.59953 6.00827 6.70239 5.40167 8.8176Z" fill="#FFC524"/>
</svg>
