<svg width="24" height="24" viewBox="0 0 24 24" fill="none" xmlns="http://www.w3.org/2000/svg">
<path d="M8 13C6.14001 13 4.59003 14.28 4.14001 16H2V18H4.14001C4.59003 19.72 6.14001 21 8 21C9.85999 21 11.41 19.72 11.86 18H22V16H11.86C11.41 14.28 9.85999 13 8 13ZM8 19C6.89999 19 6 18.1 6 17C6 15.9 6.89999 15 8 15C9.10001 15 10 15.9 10 17C10 18.1 9.10001 19 8 19ZM19.86 6C19.41 4.28003 17.86 3 16 3C14.14 3 12.59 4.28003 12.14 6H2V8H12.14C12.59 9.71997 14.14 11 16 11C17.86 11 19.41 9.71997 19.86 8H22V6H19.86ZM16 9C14.9 9 14 8.09998 14 7C14 5.90002 14.9 5 16 5C17.1 5 18 5.90002 18 7C18 8.09998 17.1 9 16 9Z" fill="#FFC524"/>
</svg>
